<?xml version="1.0" encoding="UTF-8" standalone="no"?>
<!-- Created with Inkscape (http://www.inkscape.org/) -->

<svg
   width="11.604pt"
   height="13.469905pt"
   viewBox="0 0 4.0936334 4.7518831"
   version="1.1"
   id="svg5"
   inkscape:version="1.2.2 (732a01da63, 2022-12-09, custom)"
   sodipodi:docname="fff.svg"
   xmlns:inkscape="http://www.inkscape.org/namespaces/inkscape"
   xmlns:sodipodi="http://sodipodi.sourceforge.net/DTD/sodipodi-0.dtd"
   xmlns="http://www.w3.org/2000/svg"
   xmlns:svg="http://www.w3.org/2000/svg">
  <sodipodi:namedview
     id="namedview7"
     pagecolor="#c7e2ff"
     bordercolor="#666666"
     borderopacity="1.0"
     inkscape:showpageshadow="2"
     inkscape:pageopacity="0"
     inkscape:pagecheckerboard="false"
     inkscape:deskcolor="#d18383"
     inkscape:document-units="mm"
     showgrid="true"
     inkscape:zoom="52.683538"
     inkscape:cx="5.4760938"
     inkscape:cy="9.3197992"
     inkscape:window-width="3840"
     inkscape:window-height="2098"
     inkscape:window-x="0"
     inkscape:window-y="0"
     inkscape:window-maximized="1"
     inkscape:current-layer="layer1">
    <inkscape:grid
       type="xygrid"
       id="grid368"
       originx="-15.14029"
       originy="-17.600101" />
  </sodipodi:namedview>
  <defs
     id="defs2">
    <inkscape:path-effect
       effect="spiro"
       id="path-effect189"
       is_visible="true"
       lpeversion="1" />
    <inkscape:path-effect
       effect="spiro"
       id="path-effect185"
       is_visible="true"
       lpeversion="1" />
    <inkscape:path-effect
       effect="spiro"
       id="path-effect177"
       is_visible="true"
       lpeversion="1" />
  </defs>
  <g
     inkscape:label="Lager 1"
     inkscape:groupmode="layer"
     id="layer1"
     transform="translate(-15.140292,-17.600099)">
    <path
       style="color:#000000;fill:#ffffff;stroke-width:0.11894;-inkscape-stroke:none"
       d="m 19.233965,17.600099 c 0,0 -0.0654,0.23545 -0.305867,0.571003 -0.240471,0.335552 -0.670992,0.766366 -1.431921,1.145723 -0.761721,0.379752 -1.350228,0.536665 -1.747856,0.598648 -0.397628,0.06198 -0.602829,0.02927 -0.602829,0.02927 v 2.38e-4 c -1.2e-5,0 -0.0033,-4.64e-4 -0.0033,-4.64e-4 l -0.0019,0.03136 c 0,0 0.0032,2.26e-4 0.0033,2.38e-4 0,0 0.19362,-0.0081 0.585638,0.08595 0.392017,0.09408 0.980962,0.290434 1.766672,0.699004 0.785125,0.408265 1.224934,0.809425 1.468394,1.107858 0.12173,0.149215 0.164521,0.27121 0.206689,0.357178 0.04217,0.08597 0.06294,0.125877 0.06294,0.125877 v -0.188816 c -0.03243,-0.146363 -0.07505,-0.274097 -0.157347,-0.377634 -0.246463,-0.302124 -0.777926,-0.642413 -1.566271,-1.052352 -0.787761,-0.409636 -1.368525,-0.675914 -1.773641,-0.701558 -0.01023,-6.42e-4 -0.03644,-0.02388 -0.08916,-0.04807 0.05578,-0.01141 0.08007,-0.03726 0.105657,-0.03718 0.405781,0.0012 0.992498,-0.220339 1.756915,-0.601435 0.765206,-0.38149 1.228691,-0.681394 1.472095,-1.021039 0.243404,-0.339644 0.251755,-0.53498 0.251755,-0.53498 z"
       id="path433"
       sodipodi:nodetypes="cssscccccsssscccsscssscc" />
  </g>
</svg>
